<svg width="32" height="32" viewBox="0 0 32 32" xmlns="http://www.w3.org/2000/svg">
  <!-- 主体头部 - 更圆润的形状 -->
  <ellipse cx="16" cy="17" rx="11" ry="10" fill="#FFD700" stroke="#FFA500" stroke-width="0.5">
    <animateTransform attributeName="transform" type="scale" values="1;1.02;1" dur="4s" repeatCount="indefinite"/>
  </ellipse>
  
  <!-- 头顶毛发 -->
  <ellipse cx="16" cy="8" rx="6" ry="3" fill="#FFA500" opacity="0.8">
    <animate attributeName="opacity" values="0.8;0.9;0.8" dur="3s" repeatCount="indefinite"/>
  </ellipse>
  
  <!-- 左耳 - 更可爱的形状 -->
  <ellipse cx="9" cy="12" rx="4" ry="6" fill="#FF8C00" transform="rotate(-25 9 12)">
    <animateTransform attributeName="transform" type="rotate" values="-25 9 12;-20 9 12;-25 9 12" dur="5s" repeatCount="indefinite"/>
  </ellipse>
  <ellipse cx="9" cy="12" rx="2" ry="3" fill="#FFB347" transform="rotate(-25 9 12)"/>
  
  <!-- 右耳 -->
  <ellipse cx="23" cy="12" rx="4" ry="6" fill="#FF8C00" transform="rotate(25 23 12)">
    <animateTransform attributeName="transform" type="rotate" values="25 23 12;20 23 12;25 23 12" dur="5s" repeatCount="indefinite"/>
  </ellipse>
  <ellipse cx="23" cy="12" rx="2" ry="3" fill="#FFB347" transform="rotate(25 23 12)"/>
  
  <!-- 眼睛底色 -->
  <ellipse cx="12" cy="16" rx="3" ry="2.5" fill="#FFF"/>
  <ellipse cx="20" cy="16" rx="3" ry="2.5" fill="#FFF"/>
  
  <!-- 左眼 - 更大更萌 -->
  <circle cx="12" cy="16" r="2.2" fill="#333">
    <animate attributeName="r" values="2.2;0.3;2.2" dur="4s" repeatCount="indefinite"/>
  </circle>
  <circle cx="13" cy="15" r="0.8" fill="#FFF" opacity="0.9"/>
  
  <!-- 右眼 -->
  <circle cx="20" cy="16" r="2.2" fill="#333">
    <animate attributeName="r" values="2.2;0.3;2.2" dur="4s" repeatCount="indefinite"/>
  </circle>
  <circle cx="21" cy="15" r="0.8" fill="#FFF" opacity="0.9"/>
  
  <!-- 鼻子 - 更立体 -->
  <ellipse cx="16" cy="19" rx="2" ry="1.5" fill="#333"/>
  <ellipse cx="16" cy="18.5" rx="1.2" ry="0.8" fill="#555"/>
  <ellipse cx="16.5" cy="18.2" rx="0.4" ry="0.3" fill="#FFF" opacity="0.7"/>
  
  <!-- 嘴巴 - 更可爱的笑容 -->
  <path d="M 13 21 Q 16 23.5 19 21" stroke="#333" stroke-width="1.8" fill="none" stroke-linecap="round"/>
  
  <!-- 舌头 -->
  <ellipse cx="16" cy="24" rx="2.5" ry="1.8" fill="#FF6B9D">
    <animate attributeName="ry" values="1.8;2.2;1.8" dur="3s" repeatCount="indefinite"/>
  </ellipse>
  <ellipse cx="16" cy="23.5" rx="1.5" ry="1" fill="#FF8FA3"/>
  
  <!-- 脸颊腮红 -->
  <ellipse cx="7" cy="18" rx="2.5" ry="2" fill="#FFB6C1" opacity="0.6">
    <animate attributeName="opacity" values="0.6;0.8;0.6" dur="3s" repeatCount="indefinite"/>
  </ellipse>
  <ellipse cx="25" cy="18" rx="2.5" ry="2" fill="#FFB6C1" opacity="0.6">
    <animate attributeName="opacity" values="0.6;0.8;0.6" dur="3s" repeatCount="indefinite"/>
  </ellipse>
  
  <!-- 额头爱心装饰 -->
  <path d="M 14 11 C 14 10, 15 10, 15 11 C 15 10, 16 10, 16 11 C 16 11, 15 12, 14 11 Z" fill="#FF69B4" opacity="0.7">
    <animate attributeName="opacity" values="0.7;1;0.7" dur="2s" repeatCount="indefinite"/>
  </path>
</svg>