<svg width="512" height="512" viewBox="0 0 512 512" xmlns="http://www.w3.org/2000/svg">
  <defs>
    <linearGradient id="heartGradient" x1="0%" y1="0%" x2="100%" y2="100%">
      <stop offset="0%" style="stop-color:#FF6B35;stop-opacity:1" />
      <stop offset="50%" style="stop-color:#F7931E;stop-opacity:1" />
      <stop offset="100%" style="stop-color:#6366F1;stop-opacity:1" />
    </linearGradient>
    <filter id="shadow" x="-50%" y="-50%" width="200%" height="200%">
      <feDropShadow dx="0" dy="4" stdDeviation="8" flood-color="rgba(0,0,0,0.1)"/>
    </filter>
  </defs>
  
  <!-- Background circle for better visibility -->
  <circle cx="256" cy="256" r="240" fill="url(#heartGradient)" opacity="0.1" filter="url(#shadow)"/>
  
  <!-- Heart shape -->
  <path d="M256 448c-7.18 0-13.6-2.88-18.24-7.68L69.12 271.36C25.6 228.48 25.6 158.72 69.12 115.84c21.76-21.44 50.56-33.28 81.28-33.28s59.52 11.84 81.28 33.28L256 140.16l24.32-24.32c21.76-21.44 50.56-33.28 81.28-33.28s59.52 11.84 81.28 33.28c43.52 42.88 43.52 112.64 0 155.52L274.24 440.32C269.6 445.12 263.18 448 256 448z" 
        fill="url(#heartGradient)" 
        filter="url(#shadow)"/>
</svg>