<svg width="120" height="120" viewBox="0 0 120 120" xmlns="http://www.w3.org/2000/svg">
  <defs>
    <!-- 主渐变 - 温暖的粉红到橙色 -->
    <linearGradient id="mainGradient" x1="0%" y1="0%" x2="100%" y2="100%">
      <stop offset="0%" style="stop-color:#FF6B6B;stop-opacity:1" />
      <stop offset="50%" style="stop-color:#FF8E8E;stop-opacity:1" />
      <stop offset="100%" style="stop-color:#FFB6B6;stop-opacity:1" />
    </linearGradient>
    
    <!-- 背景渐变 -->
    <linearGradient id="bgGradient" x1="0%" y1="0%" x2="100%" y2="100%">
      <stop offset="0%" style="stop-color:#FFFFFF;stop-opacity:0.9" />
      <stop offset="100%" style="stop-color:#FFFFFF;stop-opacity:0.7" />
    </linearGradient>
    
    <!-- 阴影滤镜 -->
    <filter id="softShadow" x="-50%" y="-50%" width="200%" height="200%">
      <feDropShadow dx="0" dy="2" stdDeviation="4" flood-color="rgba(255,107,107,0.3)"/>
    </filter>
    
    <!-- 内阴影效果 -->
    <filter id="innerGlow" x="-50%" y="-50%" width="200%" height="200%">
      <feGaussianBlur stdDeviation="2" result="coloredBlur"/>
      <feMerge> 
        <feMergeNode in="coloredBlur"/>
        <feMergeNode in="SourceGraphic"/>
      </feMerge>
    </filter>
  </defs>
  
  <!-- 背景圆形 -->
  <circle cx="60" cy="60" r="55" fill="url(#bgGradient)" filter="url(#softShadow)"/>
  
  <!-- 简化的心形 - 更现代的设计 -->
  <g transform="translate(60, 60)">
    <!-- 心形主体 -->
    <path d="M0 8 C-12 -8, -24 -8, -24 4 C-24 16, 0 32, 0 32 C0 32, 24 16, 24 4 C24 -8, 12 -8, 0 8 Z" 
          fill="url(#mainGradient)" 
          filter="url(#innerGlow)"
          stroke="rgba(255,255,255,0.3)" 
          stroke-width="1"/>
    
    <!-- 高光效果 -->
    <ellipse cx="-8" cy="-2" rx="6" ry="4" fill="rgba(255,255,255,0.4)" opacity="0.8"/>
    
    <!-- 小装饰点 -->
    <circle cx="8" cy="6" r="1.5" fill="rgba(255,255,255,0.6)"/>
    <circle cx="-6" cy="10" r="1" fill="rgba(255,255,255,0.5)"/>
  </g>
  
  <!-- 外圈装饰 -->
  <circle cx="60" cy="60" r="55" fill="none" stroke="rgba(255,107,107,0.2)" stroke-width="1" opacity="0.6"/>
</svg>